<svg xmlns="http://www.w3.org/2000/svg" xmlns:xlink="http://www.w3.org/1999/xlink" width="336" zoomAndPan="magnify" viewBox="0 0 252 143.999998" height="192" preserveAspectRatio="xMidYMid meet" version="1.0"><defs><g/><clipPath id="2f9d217ea0"><rect x="0" width="48" y="0" height="36"/></clipPath><clipPath id="a1e199348f"><path d="M 12 2 L 14.558594 2 L 14.558594 8 L 12 8 Z M 12 2 " clip-rule="nonzero"/></clipPath><clipPath id="123619e163"><rect x="0" width="15" y="0" height="10"/></clipPath></defs><rect x="-25.2" width="302.4" fill="#ffffff" y="-14.4" height="172.799997" fill-opacity="1"/><rect x="-25.2" width="302.4" fill="#004aad" y="-14.4" height="172.799997" fill-opacity="1"/><g transform="matrix(1, 0, 0, 1, 14, 54)"><g clip-path="url(#2f9d217ea0)"><g fill="#ffffff" fill-opacity="1"><g transform="translate(0.400002, 28.946188)"><g><path d="M 1 -20.703125 L 6.546875 -20.703125 L 6.546875 -12.609375 L 7.359375 -12.609375 C 7.671875 -12.609375 7.921875 -12.648438 8.109375 -12.734375 C 8.304688 -12.816406 8.460938 -12.960938 8.578125 -13.171875 C 8.691406 -13.390625 8.769531 -13.695312 8.8125 -14.09375 C 8.851562 -14.488281 8.875 -14.992188 8.875 -15.609375 L 8.875 -18 C 8.875 -18.601562 8.910156 -19.097656 8.984375 -19.484375 C 9.054688 -19.867188 9.175781 -20.273438 9.34375 -20.703125 L 14.875 -20.703125 C 14.769531 -20.453125 14.691406 -20.222656 14.640625 -20.015625 C 14.585938 -19.816406 14.546875 -19.597656 14.515625 -19.359375 C 14.484375 -19.117188 14.460938 -18.847656 14.453125 -18.546875 C 14.441406 -18.242188 14.4375 -17.867188 14.4375 -17.421875 L 14.4375 -14.96875 C 14.4375 -14.488281 14.425781 -14.085938 14.40625 -13.765625 C 14.382812 -13.441406 14.347656 -13.160156 14.296875 -12.921875 C 14.242188 -12.691406 14.164062 -12.492188 14.0625 -12.328125 C 13.957031 -12.160156 13.820312 -11.984375 13.65625 -11.796875 C 13.507812 -11.628906 13.363281 -11.488281 13.21875 -11.375 C 13.082031 -11.257812 12.914062 -11.160156 12.71875 -11.078125 C 12.519531 -10.992188 12.289062 -10.914062 12.03125 -10.84375 C 11.769531 -10.78125 11.453125 -10.71875 11.078125 -10.65625 L 10.6875 -10.5625 L 11.328125 -10.46875 C 12.492188 -10.257812 13.300781 -9.875 13.75 -9.3125 C 14.207031 -8.75 14.4375 -7.859375 14.4375 -6.640625 L 14.4375 -3.71875 C 14.4375 -3.226562 14.441406 -2.816406 14.453125 -2.484375 C 14.460938 -2.148438 14.484375 -1.847656 14.515625 -1.578125 C 14.546875 -1.316406 14.585938 -1.066406 14.640625 -0.828125 C 14.691406 -0.585938 14.769531 -0.3125 14.875 0 L 9.53125 0 C 9.382812 -0.25 9.269531 -0.488281 9.1875 -0.71875 C 9.101562 -0.945312 9.035156 -1.1875 8.984375 -1.4375 C 8.929688 -1.695312 8.898438 -2.003906 8.890625 -2.359375 C 8.878906 -2.710938 8.875 -3.132812 8.875 -3.625 L 8.875 -5.53125 C 8.875 -6.476562 8.753906 -7.144531 8.515625 -7.53125 C 8.285156 -7.914062 7.867188 -8.109375 7.265625 -8.109375 L 6.546875 -8.109375 L 6.546875 0 L 1 0 Z M 1 -20.703125 "/></g></g></g><g fill="#ffffff" fill-opacity="1"><g transform="translate(15.832754, 28.946188)"><g><path d="M 1 -20.703125 L 6.546875 -20.703125 L 6.546875 -12.609375 L 8.90625 -12.609375 L 8.90625 -20.703125 L 14.46875 -20.703125 L 14.46875 0 L 8.90625 0 L 8.90625 -8.109375 L 6.546875 -8.109375 L 6.546875 0 L 1 0 Z M 1 -20.703125 "/></g></g></g><g fill="#ffffff" fill-opacity="1"><g transform="translate(31.296559, 28.946188)"><g><path d="M 1 -16.484375 C 1 -17.398438 1.070312 -18.128906 1.21875 -18.671875 C 1.375 -19.222656 1.617188 -19.644531 1.953125 -19.9375 C 2.285156 -20.21875 2.796875 -20.414062 3.484375 -20.53125 C 4.179688 -20.644531 5.210938 -20.703125 6.578125 -20.703125 L 8.84375 -20.703125 C 10.207031 -20.703125 11.238281 -20.644531 11.9375 -20.53125 C 12.632812 -20.414062 13.144531 -20.21875 13.46875 -19.9375 C 13.800781 -19.644531 14.046875 -19.222656 14.203125 -18.671875 C 14.359375 -18.128906 14.4375 -17.398438 14.4375 -16.484375 L 14.4375 0 L 8.875 0 L 8.875 -4.375 L 6.546875 -4.375 L 6.546875 0 L 1 0 Z M 8.875 -8.96875 L 8.875 -14.4375 C 8.875 -15.71875 8.484375 -16.359375 7.703125 -16.359375 C 6.929688 -16.359375 6.546875 -15.71875 6.546875 -14.4375 L 6.546875 -8.96875 Z M 8.875 -8.96875 "/></g></g></g></g></g><g transform="matrix(1, 0, 0, 1, 14, 54)"><g clip-path="url(#123619e163)"><g fill="#ffffff" fill-opacity="1"><g transform="translate(1.138724, 7.541762)"><g><path d="M 0.25 -5.171875 L 1.640625 -5.171875 L 1.640625 -3.15625 L 1.84375 -3.15625 C 1.914062 -3.15625 1.976562 -3.164062 2.03125 -3.1875 C 2.082031 -3.207031 2.117188 -3.242188 2.140625 -3.296875 C 2.171875 -3.347656 2.191406 -3.421875 2.203125 -3.515625 C 2.210938 -3.617188 2.21875 -3.75 2.21875 -3.90625 L 2.21875 -4.5 C 2.21875 -4.65625 2.226562 -4.78125 2.25 -4.875 C 2.269531 -4.96875 2.300781 -5.066406 2.34375 -5.171875 L 3.71875 -5.171875 C 3.695312 -5.117188 3.675781 -5.066406 3.65625 -5.015625 C 3.644531 -4.960938 3.632812 -4.90625 3.625 -4.84375 C 3.625 -4.78125 3.617188 -4.710938 3.609375 -4.640625 C 3.609375 -4.566406 3.609375 -4.472656 3.609375 -4.359375 L 3.609375 -3.75 C 3.609375 -3.625 3.601562 -3.519531 3.59375 -3.4375 C 3.59375 -3.363281 3.585938 -3.296875 3.578125 -3.234375 C 3.566406 -3.171875 3.546875 -3.117188 3.515625 -3.078125 C 3.492188 -3.035156 3.460938 -2.992188 3.421875 -2.953125 C 3.378906 -2.910156 3.335938 -2.875 3.296875 -2.84375 C 3.265625 -2.8125 3.222656 -2.785156 3.171875 -2.765625 C 3.128906 -2.742188 3.070312 -2.722656 3 -2.703125 C 2.9375 -2.691406 2.859375 -2.675781 2.765625 -2.65625 L 2.671875 -2.640625 L 2.828125 -2.609375 C 3.117188 -2.566406 3.320312 -2.472656 3.4375 -2.328125 C 3.550781 -2.191406 3.609375 -1.96875 3.609375 -1.65625 L 3.609375 -0.9375 C 3.609375 -0.8125 3.609375 -0.707031 3.609375 -0.625 C 3.617188 -0.539062 3.625 -0.460938 3.625 -0.390625 C 3.632812 -0.328125 3.644531 -0.265625 3.65625 -0.203125 C 3.675781 -0.140625 3.695312 -0.0703125 3.71875 0 L 2.390625 0 C 2.347656 -0.0625 2.316406 -0.117188 2.296875 -0.171875 C 2.273438 -0.234375 2.257812 -0.296875 2.25 -0.359375 C 2.238281 -0.421875 2.226562 -0.492188 2.21875 -0.578125 C 2.21875 -0.671875 2.21875 -0.78125 2.21875 -0.90625 L 2.21875 -1.375 C 2.21875 -1.613281 2.1875 -1.78125 2.125 -1.875 C 2.070312 -1.976562 1.96875 -2.03125 1.8125 -2.03125 L 1.640625 -2.03125 L 1.640625 0 L 0.25 0 Z M 0.25 -5.171875 "/></g></g></g><g fill="#ffffff" fill-opacity="1"><g transform="translate(4.9654, 7.541762)"><g><path d="M 1.578125 0 C 1.265625 0 1.015625 -0.0390625 0.828125 -0.125 C 0.640625 -0.21875 0.5 -0.363281 0.40625 -0.5625 C 0.363281 -0.65625 0.328125 -0.742188 0.296875 -0.828125 C 0.273438 -0.921875 0.253906 -1.023438 0.234375 -1.140625 C 0.222656 -1.253906 0.210938 -1.390625 0.203125 -1.546875 C 0.203125 -1.703125 0.203125 -1.890625 0.203125 -2.109375 L 0.203125 -3.078125 C 0.203125 -3.296875 0.203125 -3.476562 0.203125 -3.625 C 0.210938 -3.78125 0.222656 -3.914062 0.234375 -4.03125 C 0.253906 -4.144531 0.273438 -4.25 0.296875 -4.34375 C 0.328125 -4.4375 0.363281 -4.523438 0.40625 -4.609375 C 0.5 -4.804688 0.640625 -4.945312 0.828125 -5.03125 C 1.015625 -5.125 1.265625 -5.171875 1.578125 -5.171875 L 2.203125 -5.171875 C 2.503906 -5.171875 2.75 -5.125 2.9375 -5.03125 C 3.125 -4.945312 3.265625 -4.804688 3.359375 -4.609375 C 3.398438 -4.523438 3.429688 -4.4375 3.453125 -4.34375 C 3.484375 -4.25 3.503906 -4.144531 3.515625 -4.03125 C 3.535156 -3.914062 3.550781 -3.78125 3.5625 -3.625 C 3.570312 -3.476562 3.578125 -3.296875 3.578125 -3.078125 L 3.578125 -2.109375 C 3.578125 -1.890625 3.570312 -1.703125 3.5625 -1.546875 C 3.550781 -1.390625 3.535156 -1.253906 3.515625 -1.140625 C 3.503906 -1.023438 3.484375 -0.921875 3.453125 -0.828125 C 3.429688 -0.742188 3.398438 -0.65625 3.359375 -0.5625 C 3.265625 -0.363281 3.125 -0.21875 2.9375 -0.125 C 2.75 -0.0390625 2.503906 0 2.203125 0 Z M 2.1875 -3.703125 C 2.1875 -3.816406 2.15625 -3.910156 2.09375 -3.984375 C 2.039062 -4.066406 1.972656 -4.109375 1.890625 -4.109375 C 1.796875 -4.109375 1.722656 -4.066406 1.671875 -3.984375 C 1.617188 -3.910156 1.59375 -3.816406 1.59375 -3.703125 L 1.59375 -1.46875 C 1.59375 -1.34375 1.617188 -1.242188 1.671875 -1.171875 C 1.722656 -1.097656 1.796875 -1.0625 1.890625 -1.0625 C 1.972656 -1.0625 2.039062 -1.097656 2.09375 -1.171875 C 2.15625 -1.242188 2.1875 -1.34375 2.1875 -1.46875 Z M 2.1875 -3.703125 "/></g></g></g><g fill="#ffffff" fill-opacity="1"><g transform="translate(8.729982, 7.541762)"><g><path d="M 0.25 -5.171875 L 2.5 -5.171875 C 2.738281 -5.171875 2.925781 -5.160156 3.0625 -5.140625 C 3.195312 -5.117188 3.296875 -5.078125 3.359375 -5.015625 C 3.453125 -4.929688 3.519531 -4.789062 3.5625 -4.59375 C 3.601562 -4.40625 3.625 -4.148438 3.625 -3.828125 L 3.625 -3.4375 C 3.625 -3.113281 3.597656 -2.835938 3.546875 -2.609375 C 3.503906 -2.390625 3.441406 -2.242188 3.359375 -2.171875 C 3.328125 -2.140625 3.289062 -2.113281 3.25 -2.09375 C 3.21875 -2.070312 3.171875 -2.054688 3.109375 -2.046875 C 3.054688 -2.035156 2.988281 -2.03125 2.90625 -2.03125 C 2.832031 -2.03125 2.734375 -2.03125 2.609375 -2.03125 L 1.640625 -2.03125 L 1.640625 0 L 0.25 0 Z M 1.640625 -4.046875 L 1.640625 -3.15625 L 1.875 -3.15625 C 2.007812 -3.15625 2.101562 -3.1875 2.15625 -3.25 C 2.207031 -3.3125 2.234375 -3.425781 2.234375 -3.59375 C 2.234375 -3.769531 2.203125 -3.890625 2.140625 -3.953125 C 2.085938 -4.015625 1.984375 -4.046875 1.828125 -4.046875 Z M 1.640625 -4.046875 "/></g></g></g><g clip-path="url(#a1e199348f)"><g fill="#ffffff" fill-opacity="1"><g transform="translate(12.424705, 7.541762)"><g><path d="M 0.25 -5.171875 L 1.640625 -5.171875 L 1.640625 0 L 0.25 0 Z M 0.25 -5.171875 "/></g></g></g></g></g></g><g fill="#fffde8" fill-opacity="1"><g transform="translate(148.422184, 62.364842)"><g><path d="M 3.765625 0.375 L 0.515625 -0.140625 L 0.28125 -1.640625 L 2.765625 -2.046875 L 2.84375 -2.96875 L 0.546875 -5.859375 L 1.328125 -9.328125 L 5.09375 -10.53125 L 6.03125 -9.453125 L 3.78125 -7.390625 L 3.484375 -5.671875 L 6.109375 -3.8125 L 5.984375 -1.265625 Z M 3.765625 0.375 "/></g></g></g><g fill="#fffde8" fill-opacity="1"><g transform="translate(155.862305, 61.546446)"><g><path d="M 5.09375 1.90625 L 3.859375 -0.9375 L 1.984375 -0.140625 L 0.484375 -1.25 C 0.191406 -2.226562 0.0351562 -3.238281 0.015625 -4.28125 C 0.00390625 -5.332031 0.0820312 -6.40625 0.25 -7.5 L 2.28125 -7.375 C 2.300781 -7.144531 2.300781 -6.863281 2.28125 -6.53125 C 2.257812 -6.207031 2.238281 -5.859375 2.21875 -5.484375 C 2.195312 -5.117188 2.1875 -4.757812 2.1875 -4.40625 C 2.195312 -4.050781 2.234375 -3.738281 2.296875 -3.46875 C 2.359375 -3.207031 2.460938 -3.003906 2.609375 -2.859375 C 2.816406 -2.921875 2.972656 -2.984375 3.078125 -3.046875 C 3.179688 -3.117188 3.257812 -3.238281 3.3125 -3.40625 C 3.363281 -3.582031 3.425781 -3.851562 3.5 -4.21875 C 3.582031 -4.582031 3.707031 -5.082031 3.875 -5.71875 L 5.96875 -5.15625 L 6.640625 0.859375 Z M 5.09375 1.90625 "/></g></g></g><g fill="#fffde8" fill-opacity="1"><g transform="translate(162.780576, 60.785453)"><g><path d="M 3.1875 5.6875 L 1.25 5.09375 C 0.882812 3.050781 0.582031 0.992188 0.34375 -1.078125 C 0.113281 -3.148438 -0.0390625 -5.238281 -0.125 -7.34375 L 1.328125 -7.828125 L 1.40625 -6.96875 L 4.390625 -6.75 L 5.28125 -6.046875 C 5.382812 -5.566406 5.460938 -5.078125 5.515625 -4.578125 C 5.566406 -4.085938 5.550781 -3.578125 5.46875 -3.046875 L 2.5625 -0.46875 Z M 3.1875 5.6875 "/></g></g></g><g fill="#fffde8" fill-opacity="1"><g transform="translate(169.176985, 60.081863)"><g><path d="M 3.1875 5.6875 L 1.25 5.09375 C 0.882812 3.050781 0.582031 0.992188 0.34375 -1.078125 C 0.113281 -3.148438 -0.0390625 -5.238281 -0.125 -7.34375 L 1.328125 -7.828125 L 1.40625 -6.96875 L 4.390625 -6.75 L 5.28125 -6.046875 C 5.382812 -5.566406 5.460938 -5.078125 5.515625 -4.578125 C 5.566406 -4.085938 5.550781 -3.578125 5.46875 -3.046875 L 2.5625 -0.46875 Z M 3.1875 5.6875 "/></g></g></g><g fill="#fffde8" fill-opacity="1"><g transform="translate(175.573394, 59.378274)"><g><path d="M 1.40625 -0.15625 L 0.421875 -1.03125 C 0.285156 -1.851562 0.171875 -2.648438 0.078125 -3.421875 C -0.0117188 -4.203125 -0.0820312 -4.941406 -0.125 -5.640625 L 0.59375 -6.8125 L 4.359375 -7.578125 L 5.265625 -6.75 L 5.640625 -1.9375 L 4.609375 -0.5625 Z M 1.40625 -0.15625 "/></g></g></g><g fill="#fffde8" fill-opacity="1"><g transform="translate(181.954902, 58.676323)"><g><path d="M 0.765625 0.59375 C 0.609375 -0.664062 0.441406 -1.800781 0.265625 -2.8125 C 0.0976562 -3.820312 -0.0390625 -4.765625 -0.15625 -5.640625 C -0.28125 -6.523438 -0.335938 -7.367188 -0.328125 -8.171875 L 2.078125 -9.15625 L 2.375 -7.078125 C 2.625 -7.410156 2.910156 -7.726562 3.234375 -8.03125 C 3.566406 -8.34375 3.972656 -8.628906 4.453125 -8.890625 L 6.390625 -7.296875 L 6.015625 -5.484375 L 4.265625 -6.515625 C 4.140625 -6.429688 4.003906 -6.269531 3.859375 -6.03125 C 3.710938 -5.789062 3.5625 -5.515625 3.40625 -5.203125 C 3.25 -4.890625 3.09375 -4.601562 2.9375 -4.34375 L 2.890625 -0.21875 C 2.535156 -0.0195312 2.175781 0.140625 1.8125 0.265625 C 1.457031 0.390625 1.109375 0.5 0.765625 0.59375 Z M 0.765625 0.59375 "/></g></g></g><g fill="#fffde8" fill-opacity="1"><g transform="translate(189.514294, 57.844808)"><g><path d="M 7.328125 -6.703125 L 4.140625 -6.3125 L 4.78125 1.328125 L 3.125 2.171875 L 1.8125 -4.046875 L 1.65625 -6.015625 L -0.15625 -5.78125 L -0.390625 -7.734375 L 1.5 -8.078125 L 1.21875 -11.359375 L 3.65625 -12.375 L 3.90625 -9.21875 L 3.96875 -8.5 L 6.625 -8.953125 Z M 7.328125 -6.703125 "/></g></g></g><g fill="#fffde8" fill-opacity="1"><g transform="translate(197.923561, 56.919809)"><g/></g><g transform="translate(202.396581, 56.427787)"><g><path d="M 4.9375 6.375 L 3.96875 -1 L 1.875 -0.1875 C 1.53125 -0.34375 1.21875 -0.59375 0.9375 -0.9375 C 0.65625 -1.28125 0.410156 -1.75 0.203125 -2.34375 L -0.09375 -7.453125 L 1.96875 -7.59375 L 2.203125 -3.140625 C 2.335938 -3.148438 2.488281 -3.195312 2.65625 -3.28125 C 2.820312 -3.363281 2.984375 -3.453125 3.140625 -3.546875 C 3.304688 -3.648438 3.4375 -3.742188 3.53125 -3.828125 C 3.632812 -3.910156 3.6875 -3.953125 3.6875 -3.953125 L 4.453125 -6.578125 L 6.453125 -6.125 L 7.15625 5.8125 Z M 4.9375 6.375 "/></g></g></g><g fill="#fffde8" fill-opacity="1"><g transform="translate(209.896344, 55.602831)"><g><path d="M 1.40625 -0.15625 L 0.421875 -1.03125 C 0.285156 -1.851562 0.171875 -2.648438 0.078125 -3.421875 C -0.0117188 -4.203125 -0.0820312 -4.941406 -0.125 -5.640625 L 0.59375 -6.8125 L 4.359375 -7.578125 L 5.265625 -6.75 L 5.640625 -1.9375 L 4.609375 -0.5625 Z M 1.40625 -0.15625 "/></g></g></g><g fill="#fffde8" fill-opacity="1"><g transform="translate(216.277851, 54.900881)"><g><path d="M 5.09375 1.90625 L 3.859375 -0.9375 L 1.984375 -0.140625 L 0.484375 -1.25 C 0.191406 -2.226562 0.0351562 -3.238281 0.015625 -4.28125 C 0.00390625 -5.332031 0.0820312 -6.40625 0.25 -7.5 L 2.28125 -7.375 C 2.300781 -7.144531 2.300781 -6.863281 2.28125 -6.53125 C 2.257812 -6.207031 2.238281 -5.859375 2.21875 -5.484375 C 2.195312 -5.117188 2.1875 -4.757812 2.1875 -4.40625 C 2.195312 -4.050781 2.234375 -3.738281 2.296875 -3.46875 C 2.359375 -3.207031 2.460938 -3.003906 2.609375 -2.859375 C 2.816406 -2.921875 2.972656 -2.984375 3.078125 -3.046875 C 3.179688 -3.117188 3.257812 -3.238281 3.3125 -3.40625 C 3.363281 -3.582031 3.425781 -3.851562 3.5 -4.21875 C 3.582031 -4.582031 3.707031 -5.082031 3.875 -5.71875 L 5.96875 -5.15625 L 6.640625 0.859375 Z M 5.09375 1.90625 "/></g></g></g><g fill="#fffde8" fill-opacity="1"><g transform="translate(223.196122, 54.139887)"><g><path d="M 0.765625 0.59375 C 0.609375 -0.664062 0.441406 -1.800781 0.265625 -2.8125 C 0.0976562 -3.820312 -0.0390625 -4.765625 -0.15625 -5.640625 C -0.28125 -6.523438 -0.335938 -7.367188 -0.328125 -8.171875 L 2.078125 -9.15625 L 2.375 -7.078125 C 2.625 -7.410156 2.910156 -7.726562 3.234375 -8.03125 C 3.566406 -8.34375 3.972656 -8.628906 4.453125 -8.890625 L 6.390625 -7.296875 L 6.015625 -5.484375 L 4.265625 -6.515625 C 4.140625 -6.429688 4.003906 -6.269531 3.859375 -6.03125 C 3.710938 -5.789062 3.5625 -5.515625 3.40625 -5.203125 C 3.25 -4.890625 3.09375 -4.601562 2.9375 -4.34375 L 2.890625 -0.21875 C 2.535156 -0.0195312 2.175781 0.140625 1.8125 0.265625 C 1.457031 0.390625 1.109375 0.5 0.765625 0.59375 Z M 0.765625 0.59375 "/></g></g></g><g fill="#fffde8" fill-opacity="1"><g transform="translate(230.765366, 53.307289)"><g/></g></g><g fill="#fffde8" fill-opacity="1"><g transform="translate(178.682598, 74.126741)"><g><path d="M 1.375 0.875 L 0.265625 -2.625 C 0.046875 -3.894531 -0.101562 -5.046875 -0.1875 -6.078125 C -0.28125 -7.117188 -0.328125 -8.046875 -0.328125 -8.859375 L -0.21875 -11.609375 L 1.640625 -12.234375 L 1.625 -8.046875 L 1.984375 -4.25 L 2.71875 -0.328125 Z M 1.375 0.875 "/></g></g></g><g fill="#fffde8" fill-opacity="1"><g transform="translate(182.082092, 73.752805)"><g><path d="M 1.40625 -0.15625 L 0.421875 -1.03125 C 0.285156 -1.851562 0.171875 -2.648438 0.078125 -3.421875 C -0.0117188 -4.203125 -0.0820312 -4.941406 -0.125 -5.640625 L 0.59375 -6.8125 L 4.359375 -7.578125 L 5.265625 -6.75 L 5.640625 -1.9375 L 4.609375 -0.5625 Z M 1.40625 -0.15625 "/></g></g></g><g fill="#fffde8" fill-opacity="1"><g transform="translate(188.463599, 73.050854)"><g><path d="M 2.859375 -0.3125 C 2.609375 -0.300781 2.328125 -0.347656 2.015625 -0.453125 C 1.703125 -0.554688 1.367188 -0.695312 1.015625 -0.875 C 0.796875 -1.207031 0.609375 -1.601562 0.453125 -2.0625 C 0.304688 -2.519531 0.175781 -3.019531 0.0625 -3.5625 C 0.0625 -4.59375 0.316406 -5.519531 0.828125 -6.34375 C 1.347656 -6.863281 2 -7.253906 2.78125 -7.515625 C 3.03125 -7.484375 3.296875 -7.429688 3.578125 -7.359375 C 3.859375 -7.296875 4.148438 -7.207031 4.453125 -7.09375 L 5.03125 -6.78125 C 5.019531 -6.695312 4.957031 -6.546875 4.84375 -6.328125 C 4.726562 -6.117188 4.609375 -5.910156 4.484375 -5.703125 C 4.359375 -5.492188 4.269531 -5.34375 4.21875 -5.25 C 4.039062 -5.332031 3.835938 -5.347656 3.609375 -5.296875 C 3.390625 -5.253906 3.171875 -5.1875 2.953125 -5.09375 C 2.742188 -5 2.566406 -4.90625 2.421875 -4.8125 C 2.285156 -4.726562 2.21875 -4.6875 2.21875 -4.6875 C 2.101562 -4.457031 2.023438 -4.222656 1.984375 -3.984375 C 1.953125 -3.742188 1.9375 -3.625 1.9375 -3.625 C 2.007812 -2.894531 2.179688 -2.382812 2.453125 -2.09375 L 3.84375 -2.5625 L 4.65625 -1.8125 C 4.632812 -1.664062 4.53125 -1.503906 4.34375 -1.328125 C 4.164062 -1.160156 3.960938 -1 3.734375 -0.84375 C 3.503906 -0.6875 3.300781 -0.554688 3.125 -0.453125 C 2.945312 -0.359375 2.859375 -0.3125 2.859375 -0.3125 Z M 2.859375 -0.3125 "/></g></g></g><g fill="#fffde8" fill-opacity="1"><g transform="translate(194.159233, 72.424348)"><g><path d="M 5.78125 -0.640625 L 4.546875 -0.53125 C 4.546875 -0.53125 4.519531 -0.601562 4.46875 -0.75 C 4.414062 -0.894531 4.351562 -1.078125 4.28125 -1.296875 C 4.207031 -1.523438 4.140625 -1.753906 4.078125 -1.984375 C 4.015625 -2.210938 3.972656 -2.414062 3.953125 -2.59375 C 3.910156 -2.28125 3.796875 -1.96875 3.609375 -1.65625 C 3.429688 -1.351562 3.273438 -1.054688 3.140625 -0.765625 L 1.15625 -0.875 C 1.15625 -0.875 1.101562 -0.941406 1 -1.078125 C 0.894531 -1.222656 0.769531 -1.40625 0.625 -1.625 C 0.476562 -1.84375 0.328125 -2.082031 0.171875 -2.34375 C 0.0234375 -2.601562 -0.0976562 -2.847656 -0.203125 -3.078125 C -0.316406 -3.304688 -0.382812 -3.5 -0.40625 -3.65625 C -0.363281 -3.832031 -0.25 -4.070312 -0.0625 -4.375 C 0.121094 -4.675781 0.335938 -4.992188 0.578125 -5.328125 C 0.828125 -5.671875 1.070312 -5.988281 1.3125 -6.28125 C 1.5625 -6.582031 1.765625 -6.828125 1.921875 -7.015625 C 2.085938 -7.203125 2.171875 -7.296875 2.171875 -7.296875 C 2.460938 -7.273438 2.738281 -7.234375 3 -7.171875 C 3.269531 -7.109375 3.53125 -7.039062 3.78125 -6.96875 C 4 -6.75 4.195312 -6.515625 4.375 -6.265625 C 4.5625 -6.023438 4.734375 -5.765625 4.890625 -5.484375 Z M 5.78125 -0.640625 "/></g></g></g><g fill="#fffde8" fill-opacity="1"><g transform="translate(200.391631, 71.738799)"><g><path d="M 1.375 0.875 L 0.265625 -2.625 C 0.046875 -3.894531 -0.101562 -5.046875 -0.1875 -6.078125 C -0.28125 -7.117188 -0.328125 -8.046875 -0.328125 -8.859375 L -0.21875 -11.609375 L 1.640625 -12.234375 L 1.625 -8.046875 L 1.984375 -4.25 L 2.71875 -0.328125 Z M 1.375 0.875 "/></g></g></g><g fill="#fffde8" fill-opacity="1"><g transform="translate(203.796744, 71.364245)"><g/></g></g><g fill="#fffde8" fill-opacity="1"><g transform="translate(144.934555, 92.929417)"><g><path d="M 2.859375 -0.3125 C 2.609375 -0.300781 2.328125 -0.347656 2.015625 -0.453125 C 1.703125 -0.554688 1.367188 -0.695312 1.015625 -0.875 C 0.796875 -1.207031 0.609375 -1.601562 0.453125 -2.0625 C 0.304688 -2.519531 0.175781 -3.019531 0.0625 -3.5625 C 0.0625 -4.59375 0.316406 -5.519531 0.828125 -6.34375 C 1.347656 -6.863281 2 -7.253906 2.78125 -7.515625 C 3.03125 -7.484375 3.296875 -7.429688 3.578125 -7.359375 C 3.859375 -7.296875 4.148438 -7.207031 4.453125 -7.09375 L 5.03125 -6.78125 C 5.019531 -6.695312 4.957031 -6.546875 4.84375 -6.328125 C 4.726562 -6.117188 4.609375 -5.910156 4.484375 -5.703125 C 4.359375 -5.492188 4.269531 -5.34375 4.21875 -5.25 C 4.039062 -5.332031 3.835938 -5.347656 3.609375 -5.296875 C 3.390625 -5.253906 3.171875 -5.1875 2.953125 -5.09375 C 2.742188 -5 2.566406 -4.90625 2.421875 -4.8125 C 2.285156 -4.726562 2.21875 -4.6875 2.21875 -4.6875 C 2.101562 -4.457031 2.023438 -4.222656 1.984375 -3.984375 C 1.953125 -3.742188 1.9375 -3.625 1.9375 -3.625 C 2.007812 -2.894531 2.179688 -2.382812 2.453125 -2.09375 L 3.84375 -2.5625 L 4.65625 -1.8125 C 4.632812 -1.664062 4.53125 -1.503906 4.34375 -1.328125 C 4.164062 -1.160156 3.960938 -1 3.734375 -0.84375 C 3.503906 -0.6875 3.300781 -0.554688 3.125 -0.453125 C 2.945312 -0.359375 2.859375 -0.3125 2.859375 -0.3125 Z M 2.859375 -0.3125 "/></g></g></g><g fill="#fffde8" fill-opacity="1"><g transform="translate(150.630189, 92.302911)"><g><path d="M 5.78125 -0.640625 L 4.546875 -0.53125 C 4.546875 -0.53125 4.519531 -0.601562 4.46875 -0.75 C 4.414062 -0.894531 4.351562 -1.078125 4.28125 -1.296875 C 4.207031 -1.523438 4.140625 -1.753906 4.078125 -1.984375 C 4.015625 -2.210938 3.972656 -2.414062 3.953125 -2.59375 C 3.910156 -2.28125 3.796875 -1.96875 3.609375 -1.65625 C 3.429688 -1.351562 3.273438 -1.054688 3.140625 -0.765625 L 1.15625 -0.875 C 1.15625 -0.875 1.101562 -0.941406 1 -1.078125 C 0.894531 -1.222656 0.769531 -1.40625 0.625 -1.625 C 0.476562 -1.84375 0.328125 -2.082031 0.171875 -2.34375 C 0.0234375 -2.601562 -0.0976562 -2.847656 -0.203125 -3.078125 C -0.316406 -3.304688 -0.382812 -3.5 -0.40625 -3.65625 C -0.363281 -3.832031 -0.25 -4.070312 -0.0625 -4.375 C 0.121094 -4.675781 0.335938 -4.992188 0.578125 -5.328125 C 0.828125 -5.671875 1.070312 -5.988281 1.3125 -6.28125 C 1.5625 -6.582031 1.765625 -6.828125 1.921875 -7.015625 C 2.085938 -7.203125 2.171875 -7.296875 2.171875 -7.296875 C 2.460938 -7.273438 2.738281 -7.234375 3 -7.171875 C 3.269531 -7.109375 3.53125 -7.039062 3.78125 -6.96875 C 4 -6.75 4.195312 -6.515625 4.375 -6.265625 C 4.5625 -6.023438 4.734375 -5.765625 4.890625 -5.484375 Z M 5.78125 -0.640625 "/></g></g></g><g fill="#fffde8" fill-opacity="1"><g transform="translate(156.862587, 91.617362)"><g><path d="M 2.546875 -0.28125 L 1.4375 -3.078125 L 0.15625 -2.71875 L 0.15625 -4.15625 L 1.09375 -4.703125 C 1.019531 -5.742188 1.03125 -6.753906 1.125 -7.734375 C 1.226562 -8.722656 1.398438 -9.585938 1.640625 -10.328125 C 1.929688 -10.867188 2.242188 -11.328125 2.578125 -11.703125 C 2.910156 -12.078125 3.265625 -12.382812 3.640625 -12.625 C 3.984375 -12.582031 4.335938 -12.476562 4.703125 -12.3125 C 5.078125 -12.15625 5.421875 -11.925781 5.734375 -11.625 C 6.046875 -11.332031 6.273438 -10.976562 6.421875 -10.5625 L 5.28125 -9.109375 L 4.375 -10.046875 L 3.3125 -8.78125 L 3.1875 -5.4375 L 5.171875 -6.140625 L 4.875 -4.046875 L 3.328125 -3.578125 L 3.828125 -0.6875 Z M 2.546875 -0.28125 "/></g></g></g><g fill="#fffde8" fill-opacity="1"><g transform="translate(164.362349, 90.792406)"><g><path d="M 2.546875 -0.28125 L 1.4375 -3.078125 L 0.15625 -2.71875 L 0.15625 -4.15625 L 1.09375 -4.703125 C 1.019531 -5.742188 1.03125 -6.753906 1.125 -7.734375 C 1.226562 -8.722656 1.398438 -9.585938 1.640625 -10.328125 C 1.929688 -10.867188 2.242188 -11.328125 2.578125 -11.703125 C 2.910156 -12.078125 3.265625 -12.382812 3.640625 -12.625 C 3.984375 -12.582031 4.335938 -12.476562 4.703125 -12.3125 C 5.078125 -12.15625 5.421875 -11.925781 5.734375 -11.625 C 6.046875 -11.332031 6.273438 -10.976562 6.421875 -10.5625 L 5.28125 -9.109375 L 4.375 -10.046875 L 3.3125 -8.78125 L 3.1875 -5.4375 L 5.171875 -6.140625 L 4.875 -4.046875 L 3.328125 -3.578125 L 3.828125 -0.6875 Z M 2.546875 -0.28125 "/></g></g></g><g fill="#fffde8" fill-opacity="1"><g transform="translate(170.96751, 90.065854)"><g><path d="M 2.859375 -0.3125 C 2.609375 -0.300781 2.328125 -0.347656 2.015625 -0.453125 C 1.703125 -0.554688 1.367188 -0.695312 1.015625 -0.875 C 0.796875 -1.207031 0.609375 -1.601562 0.453125 -2.0625 C 0.304688 -2.519531 0.175781 -3.019531 0.0625 -3.5625 C 0.0625 -4.59375 0.316406 -5.519531 0.828125 -6.34375 C 1.347656 -6.863281 2 -7.253906 2.78125 -7.515625 C 3.03125 -7.484375 3.296875 -7.429688 3.578125 -7.359375 C 3.859375 -7.296875 4.148438 -7.207031 4.453125 -7.09375 L 5.03125 -6.78125 C 5.09375 -6.695312 5.140625 -6.535156 5.171875 -6.296875 C 5.203125 -6.066406 5.226562 -5.816406 5.25 -5.546875 C 5.269531 -5.273438 5.28125 -5.035156 5.28125 -4.828125 C 5.28125 -4.628906 5.28125 -4.523438 5.28125 -4.515625 C 5.132812 -4.359375 4.929688 -4.191406 4.671875 -4.015625 C 4.421875 -3.835938 4.148438 -3.65625 3.859375 -3.46875 C 3.566406 -3.289062 3.28125 -3.125 3 -2.96875 C 2.71875 -2.8125 2.476562 -2.6875 2.28125 -2.59375 C 2.09375 -2.5 1.984375 -2.453125 1.953125 -2.453125 L 2.453125 -2.09375 L 4.859375 -3.15625 L 5.6875 -2.375 C 5.664062 -2.269531 5.554688 -2.132812 5.359375 -1.96875 C 5.171875 -1.800781 4.929688 -1.617188 4.640625 -1.421875 C 4.359375 -1.222656 4.082031 -1.039062 3.8125 -0.875 C 3.550781 -0.707031 3.328125 -0.570312 3.140625 -0.46875 C 2.953125 -0.363281 2.859375 -0.3125 2.859375 -0.3125 Z M 2.859375 -0.3125 "/></g></g></g><g fill="#fffde8" fill-opacity="1"><g transform="translate(177.289375, 89.370464)"><g><path d="M -0.203125 -7.390625 L -0.5 -8.984375 L 1.265625 -9.703125 L 1.53125 -7.96875 Z M 0.734375 -0.078125 L -0.03125 -4.375 L -0.15625 -7.0625 L 1.609375 -7.125 L 2.265625 -3.484375 L 2.390625 -0.578125 Z M 0.734375 -0.078125 "/></g></g></g><g fill="#fffde8" fill-opacity="1"><g transform="translate(180.360846, 89.03261)"><g><path d="M 6.890625 1.296875 L 5.375 1.171875 C 5.257812 0.929688 5.1875 0.628906 5.15625 0.265625 C 5.132812 -0.0976562 5.125 -0.503906 5.125 -0.953125 C 5.132812 -1.410156 5.125 -1.875 5.09375 -2.34375 C 5.070312 -2.8125 4.992188 -3.28125 4.859375 -3.75 L 3.78125 -4.15625 L 2.203125 -2.9375 L 2.109375 -0.296875 C 1.859375 -0.203125 1.601562 -0.175781 1.34375 -0.21875 C 1.09375 -0.257812 0.828125 -0.34375 0.546875 -0.46875 C 0.285156 -1.582031 0.125 -2.679688 0.0625 -3.765625 C 0.0078125 -4.859375 0.0507812 -5.9375 0.1875 -7 L 1.625 -7.296875 L 2 -5.3125 C 2.25 -5.550781 2.519531 -5.773438 2.8125 -5.984375 C 3.101562 -6.191406 3.410156 -6.382812 3.734375 -6.5625 C 3.734375 -6.5625 3.835938 -6.535156 4.046875 -6.484375 C 4.253906 -6.429688 4.5 -6.359375 4.78125 -6.265625 C 5.070312 -6.179688 5.359375 -6.078125 5.640625 -5.953125 C 5.929688 -5.828125 6.160156 -5.679688 6.328125 -5.515625 C 6.546875 -4.816406 6.679688 -4.066406 6.734375 -3.265625 C 6.785156 -2.460938 6.8125 -1.664062 6.8125 -0.875 C 6.8125 -0.09375 6.835938 0.628906 6.890625 1.296875 Z M 6.890625 1.296875 "/></g></g></g><g fill="#fffde8" fill-opacity="1"><g transform="translate(187.830782, 88.210935)"><g><path d="M 2.859375 -0.3125 C 2.609375 -0.300781 2.328125 -0.347656 2.015625 -0.453125 C 1.703125 -0.554688 1.367188 -0.695312 1.015625 -0.875 C 0.796875 -1.207031 0.609375 -1.601562 0.453125 -2.0625 C 0.304688 -2.519531 0.175781 -3.019531 0.0625 -3.5625 C 0.0625 -4.59375 0.316406 -5.519531 0.828125 -6.34375 C 1.347656 -6.863281 2 -7.253906 2.78125 -7.515625 C 3.03125 -7.484375 3.296875 -7.429688 3.578125 -7.359375 C 3.859375 -7.296875 4.148438 -7.207031 4.453125 -7.09375 L 5.03125 -6.78125 C 5.09375 -6.695312 5.140625 -6.535156 5.171875 -6.296875 C 5.203125 -6.066406 5.226562 -5.816406 5.25 -5.546875 C 5.269531 -5.273438 5.28125 -5.035156 5.28125 -4.828125 C 5.28125 -4.628906 5.28125 -4.523438 5.28125 -4.515625 C 5.132812 -4.359375 4.929688 -4.191406 4.671875 -4.015625 C 4.421875 -3.835938 4.148438 -3.65625 3.859375 -3.46875 C 3.566406 -3.289062 3.28125 -3.125 3 -2.96875 C 2.71875 -2.8125 2.476562 -2.6875 2.28125 -2.59375 C 2.09375 -2.5 1.984375 -2.453125 1.953125 -2.453125 L 2.453125 -2.09375 L 4.859375 -3.15625 L 5.6875 -2.375 C 5.664062 -2.269531 5.554688 -2.132812 5.359375 -1.96875 C 5.171875 -1.800781 4.929688 -1.617188 4.640625 -1.421875 C 4.359375 -1.222656 4.082031 -1.039062 3.8125 -0.875 C 3.550781 -0.707031 3.328125 -0.570312 3.140625 -0.46875 C 2.953125 -0.363281 2.859375 -0.3125 2.859375 -0.3125 Z M 2.859375 -0.3125 "/></g></g></g><g fill="#fffde8" fill-opacity="1"><g transform="translate(194.152648, 87.515545)"><g/></g><g transform="translate(198.625668, 87.023523)"><g><path d="M 4.3125 0.09375 L 3.875 -0.609375 C 3.53125 -0.453125 3.15625 -0.34375 2.75 -0.28125 C 2.34375 -0.21875 1.929688 -0.222656 1.515625 -0.296875 C 1.273438 -0.566406 1.035156 -0.875 0.796875 -1.21875 C 0.566406 -1.5625 0.375 -1.992188 0.21875 -2.515625 C 0.15625 -2.703125 0.128906 -2.925781 0.140625 -3.1875 C 0.160156 -3.457031 0.191406 -3.71875 0.234375 -3.96875 C 0.285156 -4.226562 0.332031 -4.445312 0.375 -4.625 C 0.414062 -4.800781 0.4375 -4.890625 0.4375 -4.890625 C 0.800781 -5.347656 1.15625 -5.753906 1.5 -6.109375 C 1.851562 -6.460938 2.1875 -6.757812 2.5 -7 L 2.484375 -10.3125 L 3.84375 -10.796875 L 4.5 -7.921875 L 5.078125 -3.203125 L 5.21875 -0.421875 Z M 4.3125 0.09375 "/></g></g></g><g fill="#fffde8" fill-opacity="1"><g transform="translate(204.425684, 86.385535)"><g><path d="M 2.859375 -0.3125 C 2.609375 -0.300781 2.328125 -0.347656 2.015625 -0.453125 C 1.703125 -0.554688 1.367188 -0.695312 1.015625 -0.875 C 0.796875 -1.207031 0.609375 -1.601562 0.453125 -2.0625 C 0.304688 -2.519531 0.175781 -3.019531 0.0625 -3.5625 C 0.0625 -4.59375 0.316406 -5.519531 0.828125 -6.34375 C 1.347656 -6.863281 2 -7.253906 2.78125 -7.515625 C 3.03125 -7.484375 3.296875 -7.429688 3.578125 -7.359375 C 3.859375 -7.296875 4.148438 -7.207031 4.453125 -7.09375 L 5.03125 -6.78125 C 5.09375 -6.695312 5.140625 -6.535156 5.171875 -6.296875 C 5.203125 -6.066406 5.226562 -5.816406 5.25 -5.546875 C 5.269531 -5.273438 5.28125 -5.035156 5.28125 -4.828125 C 5.28125 -4.628906 5.28125 -4.523438 5.28125 -4.515625 C 5.132812 -4.359375 4.929688 -4.191406 4.671875 -4.015625 C 4.421875 -3.835938 4.148438 -3.65625 3.859375 -3.46875 C 3.566406 -3.289062 3.28125 -3.125 3 -2.96875 C 2.71875 -2.8125 2.476562 -2.6875 2.28125 -2.59375 C 2.09375 -2.5 1.984375 -2.453125 1.953125 -2.453125 L 2.453125 -2.09375 L 4.859375 -3.15625 L 5.6875 -2.375 C 5.664062 -2.269531 5.554688 -2.132812 5.359375 -1.96875 C 5.171875 -1.800781 4.929688 -1.617188 4.640625 -1.421875 C 4.359375 -1.222656 4.082031 -1.039062 3.8125 -0.875 C 3.550781 -0.707031 3.328125 -0.570312 3.140625 -0.46875 C 2.953125 -0.363281 2.859375 -0.3125 2.859375 -0.3125 Z M 2.859375 -0.3125 "/></g></g></g><g fill="#fffde8" fill-opacity="1"><g transform="translate(210.747549, 85.690145)"><g><path d="M 5.78125 -0.640625 L 4.546875 -0.53125 C 4.546875 -0.53125 4.519531 -0.601562 4.46875 -0.75 C 4.414062 -0.894531 4.351562 -1.078125 4.28125 -1.296875 C 4.207031 -1.523438 4.140625 -1.753906 4.078125 -1.984375 C 4.015625 -2.210938 3.972656 -2.414062 3.953125 -2.59375 C 3.910156 -2.28125 3.796875 -1.96875 3.609375 -1.65625 C 3.429688 -1.351562 3.273438 -1.054688 3.140625 -0.765625 L 1.15625 -0.875 C 1.15625 -0.875 1.101562 -0.941406 1 -1.078125 C 0.894531 -1.222656 0.769531 -1.40625 0.625 -1.625 C 0.476562 -1.84375 0.328125 -2.082031 0.171875 -2.34375 C 0.0234375 -2.601562 -0.0976562 -2.847656 -0.203125 -3.078125 C -0.316406 -3.304688 -0.382812 -3.5 -0.40625 -3.65625 C -0.363281 -3.832031 -0.25 -4.070312 -0.0625 -4.375 C 0.121094 -4.675781 0.335938 -4.992188 0.578125 -5.328125 C 0.828125 -5.671875 1.070312 -5.988281 1.3125 -6.28125 C 1.5625 -6.582031 1.765625 -6.828125 1.921875 -7.015625 C 2.085938 -7.203125 2.171875 -7.296875 2.171875 -7.296875 C 2.460938 -7.273438 2.738281 -7.234375 3 -7.171875 C 3.269531 -7.109375 3.53125 -7.039062 3.78125 -6.96875 C 4 -6.75 4.195312 -6.515625 4.375 -6.265625 C 4.5625 -6.023438 4.734375 -5.765625 4.890625 -5.484375 Z M 5.78125 -0.640625 "/></g></g></g><g fill="#fffde8" fill-opacity="1"><g transform="translate(216.979947, 85.004596)"><g><path d="M 1.375 0.875 L 0.265625 -2.625 C 0.046875 -3.894531 -0.101562 -5.046875 -0.1875 -6.078125 C -0.28125 -7.117188 -0.328125 -8.046875 -0.328125 -8.859375 L -0.21875 -11.609375 L 1.640625 -12.234375 L 1.625 -8.046875 L 1.984375 -4.25 L 2.71875 -0.328125 Z M 1.375 0.875 "/></g></g></g><g fill="#fffde8" fill-opacity="1"><g transform="translate(220.379441, 84.63066)"><g><path d="M 2.859375 -0.3125 C 2.609375 -0.300781 2.328125 -0.347656 2.015625 -0.453125 C 1.703125 -0.554688 1.367188 -0.695312 1.015625 -0.875 C 0.796875 -1.207031 0.609375 -1.601562 0.453125 -2.0625 C 0.304688 -2.519531 0.175781 -3.019531 0.0625 -3.5625 C 0.0625 -4.59375 0.316406 -5.519531 0.828125 -6.34375 C 1.347656 -6.863281 2 -7.253906 2.78125 -7.515625 C 3.03125 -7.484375 3.296875 -7.429688 3.578125 -7.359375 C 3.859375 -7.296875 4.148438 -7.207031 4.453125 -7.09375 L 5.03125 -6.78125 C 5.09375 -6.695312 5.140625 -6.535156 5.171875 -6.296875 C 5.203125 -6.066406 5.226562 -5.816406 5.25 -5.546875 C 5.269531 -5.273438 5.28125 -5.035156 5.28125 -4.828125 C 5.28125 -4.628906 5.28125 -4.523438 5.28125 -4.515625 C 5.132812 -4.359375 4.929688 -4.191406 4.671875 -4.015625 C 4.421875 -3.835938 4.148438 -3.65625 3.859375 -3.46875 C 3.566406 -3.289062 3.28125 -3.125 3 -2.96875 C 2.71875 -2.8125 2.476562 -2.6875 2.28125 -2.59375 C 2.09375 -2.5 1.984375 -2.453125 1.953125 -2.453125 L 2.453125 -2.09375 L 4.859375 -3.15625 L 5.6875 -2.375 C 5.664062 -2.269531 5.554688 -2.132812 5.359375 -1.96875 C 5.171875 -1.800781 4.929688 -1.617188 4.640625 -1.421875 C 4.359375 -1.222656 4.082031 -1.039062 3.8125 -0.875 C 3.550781 -0.707031 3.328125 -0.570312 3.140625 -0.46875 C 2.953125 -0.363281 2.859375 -0.3125 2.859375 -0.3125 Z M 2.859375 -0.3125 "/></g></g></g><g fill="#fffde8" fill-opacity="1"><g transform="translate(226.701307, 83.93527)"><g><path d="M 0.765625 0.59375 C 0.609375 -0.664062 0.441406 -1.800781 0.265625 -2.8125 C 0.0976562 -3.820312 -0.0390625 -4.765625 -0.15625 -5.640625 C -0.28125 -6.523438 -0.335938 -7.367188 -0.328125 -8.171875 L 2.078125 -9.15625 L 2.375 -7.078125 C 2.625 -7.410156 2.910156 -7.726562 3.234375 -8.03125 C 3.566406 -8.34375 3.972656 -8.628906 4.453125 -8.890625 L 6.390625 -7.296875 L 6.015625 -5.484375 L 4.265625 -6.515625 C 4.140625 -6.429688 4.003906 -6.269531 3.859375 -6.03125 C 3.710938 -5.789062 3.5625 -5.515625 3.40625 -5.203125 C 3.25 -4.890625 3.09375 -4.601562 2.9375 -4.34375 L 2.890625 -0.21875 C 2.535156 -0.0195312 2.175781 0.140625 1.8125 0.265625 C 1.457031 0.390625 1.109375 0.5 0.765625 0.59375 Z M 0.765625 0.59375 "/></g></g></g><g fill="#fffde8" fill-opacity="1"><g transform="translate(233.366098, 83.202159)"><g><path d="M 3.765625 0.375 L 0.515625 -0.140625 L 0.28125 -1.640625 L 2.765625 -2.046875 L 2.84375 -2.96875 L 0.546875 -5.859375 L 1.328125 -9.328125 L 5.09375 -10.53125 L 6.03125 -9.453125 L 3.78125 -7.390625 L 3.484375 -5.671875 L 6.109375 -3.8125 L 5.984375 -1.265625 Z M 3.765625 0.375 "/></g></g></g><g fill="#fffde8" fill-opacity="1"><g transform="translate(240.813283, 82.382986)"><g/></g></g></svg>