<svg xmlns="http://www.w3.org/2000/svg" viewBox="0 0 950 569" width="32" height="32"><g><g><g><g><path d="M0.241,125.704l118.72,0l0,173.231l17.39,0c6.688,0 12.039,-0.836 16.052,-2.675c4.18,-1.756 7.525,-4.849 10.033,-9.364c2.425,-4.682 4.097,-11.203 5.016,-19.731c0.836,-8.444 1.338,-19.229 1.338,-32.439l0,-51.167c0,-12.875 0.752,-23.493 2.341,-31.77c1.505,-8.193 4.097,-16.888 7.692,-26.085l118.386,0c-2.257,5.351 -3.929,10.284 -5.016,14.715c-1.17,4.264 -2.007,8.946 -2.675,14.046c-0.669,5.184 -1.17,10.952 -1.338,17.39c-0.251,6.521 -0.334,14.547 -0.334,24.078l0,52.504c0,10.284 -0.251,18.895 -0.669,25.751c-0.502,6.939 -1.254,12.959 -2.341,18.059c-1.17,4.933 -2.843,9.197 -5.016,12.708c-2.257,3.595 -5.184,7.357 -8.695,11.37c-3.177,3.595 -6.27,6.605 -9.364,9.029c-2.926,2.508 -6.521,4.598 -10.702,6.354c-4.264,1.839 -9.197,3.511 -14.715,5.016c-5.602,1.338 -12.374,2.675 -20.4,4.013l-8.361,2.007l13.711,2.007c24.915,4.515 42.221,12.708 51.836,24.747c9.782,12.039 14.715,31.101 14.715,57.186l0,62.537c0,10.534 0.084,19.313 0.334,26.419c0.167,7.19 0.669,13.628 1.338,19.397c0.669,5.602 1.505,10.952 2.675,16.052c1.087,5.184 2.759,11.036 5.016,17.724l-114.373,0c-3.177,-5.351 -5.602,-10.451 -7.357,-15.383c-1.839,-4.849 -3.261,-10.033 -4.348,-15.383c-1.17,-5.518 -1.839,-12.123 -2.007,-19.731c-0.251,-7.525 -0.334,-16.554 -0.334,-27.088l0,-40.8c0,-20.233 -2.592,-34.529 -7.692,-42.806c-4.933,-8.193 -13.879,-12.374 -26.754,-12.374l-15.383,0l0,173.566l-118.72,0l0,-443.111Z" fill="#004aad"/></g></g></g><g><g><g><path d="M330.55,125.704l118.72,0l0,173.231l50.498,0l0,-173.231l119.055,0l0,443.111l-119.055,0l0,-173.566l-50.498,0l0,173.566l-118.72,0l0,-443.111Z" fill="#004aad"/></g></g></g><g><g><g><path d="M661.523,215.998c0,-19.564 1.505,-35.198 4.682,-46.819c3.344,-11.788 8.528,-20.818 15.718,-27.088c7.106,-6.02 18.059,-10.2 32.773,-12.708c14.882,-2.425 36.954,-3.679 66.216,-3.679l48.491,0c29.178,0 51.25,1.254 66.216,3.679c14.882,2.508 25.834,6.688 32.773,12.708c7.106,6.27 12.374,15.3 15.718,27.088c3.344,11.621 5.016,27.255 5.016,46.819l0,352.817l-119.055,0l0,-93.639l-49.829,0l0,93.639l-118.72,0l0,-352.817Zm168.549,160.858l0,-117.048c0,-27.423 -8.361,-41.134 -25.082,-41.134c-16.554,0 -24.747,13.711 -24.747,41.134l0,117.048l49.829,0Z" fill="#004aad"/></g></g></g></g></svg>