<?xml version="1.0" encoding="UTF-8" standalone="no"?><!DOCTYPE svg PUBLIC "-//W3C//DTD SVG 1.1//EN" "http://www.w3.org/Graphics/SVG/1.1/DTD/svg11.dtd"><svg width="100%" height="100%" viewBox="0 0 950 569" version="1.1" xmlns="http://www.w3.org/2000/svg" xmlns:xlink="http://www.w3.org/1999/xlink" xml:space="preserve" xmlns:serif="http://www.serif.com/" style="fill-rule:evenodd;clip-rule:evenodd;stroke-linejoin:round;stroke-miterlimit:2;"><g><g><g><g><path d="M0.241,125.704l118.72,0l0,173.231l17.39,0c6.688,0 12.039,-0.836 16.052,-2.675c4.18,-1.756 7.525,-4.849 10.033,-9.364c2.425,-4.682 4.097,-11.203 5.016,-19.731c0.836,-8.444 1.338,-19.229 1.338,-32.439l0,-51.167c0,-12.875 0.752,-23.493 2.341,-31.77c1.505,-8.193 4.097,-16.888 7.692,-26.085l118.386,0c-2.257,5.351 -3.929,10.284 -5.016,14.715c-1.17,4.264 -2.007,8.946 -2.675,14.046c-0.669,5.184 -1.17,10.952 -1.338,17.39c-0.251,6.521 -0.334,14.547 -0.334,24.078l0,52.504c0,10.284 -0.251,18.895 -0.669,25.751c-0.502,6.939 -1.254,12.959 -2.341,18.059c-1.17,4.933 -2.843,9.197 -5.016,12.708c-2.257,3.595 -5.184,7.357 -8.695,11.37c-3.177,3.595 -6.27,6.605 -9.364,9.029c-2.926,2.508 -6.521,4.598 -10.702,6.354c-4.264,1.839 -9.197,3.511 -14.715,5.016c-5.602,1.338 -12.374,2.675 -20.4,4.013l-8.361,2.007l13.711,2.007c24.915,4.515 42.221,12.708 51.836,24.747c9.782,12.039 14.715,31.101 14.715,57.186l0,62.537c0,10.534 0.084,19.313 0.334,26.419c0.167,7.19 0.669,13.628 1.338,19.397c0.669,5.602 1.505,10.952 2.675,16.052c1.087,5.184 2.759,11.036 5.016,17.724l-114.373,0c-3.177,-5.351 -5.602,-10.451 -7.357,-15.383c-1.839,-4.849 -3.261,-10.033 -4.348,-15.383c-1.17,-5.518 -1.839,-12.123 -2.007,-19.731c-0.251,-7.525 -0.334,-16.554 -0.334,-27.088l0,-40.8c0,-20.233 -2.592,-34.529 -7.692,-42.806c-4.933,-8.193 -13.879,-12.374 -26.754,-12.374l-15.383,0l0,173.566l-118.72,0l0,-443.111Z" style="fill:#fff;fill-rule:nonzero;"/></g></g></g><g><g><g><path d="M330.55,125.704l118.72,0l0,173.231l50.498,0l0,-173.231l119.055,0l0,443.111l-119.055,0l0,-173.566l-50.498,0l0,173.566l-118.72,0l0,-443.111Z" style="fill:#fff;fill-rule:nonzero;"/></g></g></g><g><g><g><path d="M661.523,215.998c0,-19.564 1.505,-35.198 4.682,-46.819c3.344,-11.788 8.528,-20.818 15.718,-27.088c7.106,-6.02 18.059,-10.2 32.773,-12.708c14.882,-2.425 36.954,-3.679 66.216,-3.679l48.491,0c29.178,0 51.25,1.254 66.216,3.679c14.882,2.508 25.834,6.688 32.773,12.708c7.106,6.27 12.374,15.3 15.718,27.088c3.344,11.621 5.016,27.255 5.016,46.819l0,352.817l-119.055,0l0,-93.639l-49.829,0l0,93.639l-118.72,0l0,-352.817Zm168.549,160.858l0,-117.048c0,-27.423 -8.361,-41.134 -25.082,-41.134c-16.554,0 -24.747,13.711 -24.747,41.134l0,117.048l49.829,0Z" style="fill:#fff;fill-rule:nonzero;"/></g></g></g></g><g><g><g><g><path d="M-0,0l29.764,0l-0,43.141l4.348,0c1.505,0 2.843,-0.167 4.013,-0.669c1.087,-0.418 1.839,-1.17 2.341,-2.341c0.669,-1.087 1.087,-2.675 1.338,-4.682c0.167,-2.174 0.334,-5.016 0.334,-8.361l0,-12.708c0,-3.344 0.167,-6.02 0.669,-8.026c0.418,-2.007 1.087,-4.097 2.007,-6.354l29.429,0c-0.502,1.17 -0.92,2.257 -1.338,3.344c-0.251,1.17 -0.502,2.341 -0.669,3.679c0,1.338 -0.167,2.843 -0.334,4.348l0,19.062c0,2.675 -0.167,4.933 -0.334,6.688c0,1.589 -0.167,3.01 -0.334,4.348c-0.251,1.338 -0.669,2.508 -1.338,3.344c-0.502,0.92 -1.17,1.839 -2.007,2.675c-0.92,0.92 -1.839,1.672 -2.675,2.341c-0.669,0.669 -1.589,1.254 -2.675,1.672c-0.92,0.502 -2.174,0.92 -3.679,1.338c-1.338,0.251 -3.01,0.585 -5.016,1.003l-2.007,0.334l3.344,0.669c6.187,0.92 10.534,2.926 13.043,6.02c2.425,2.926 3.679,7.692 3.679,14.38l0,22.072c0.167,1.839 0.334,3.511 0.334,5.016c0.167,1.338 0.418,2.675 0.669,4.013c0.418,1.338 0.836,2.843 1.338,4.348l-28.426,0c-0.92,-1.338 -1.589,-2.508 -2.007,-3.679c-0.502,-1.338 -0.836,-2.675 -1.003,-4.013c-0.251,-1.338 -0.502,-2.843 -0.669,-4.682l0,-17.056c0,-5.1 -0.669,-8.695 -2.007,-10.702c-1.17,-2.174 -3.344,-3.344 -6.688,-3.344l-3.679,0l0,43.475l-29.764,0l0,-110.694Z" style="fill:#fff;fill-rule:nonzero;"/></g></g></g><g><g><g><path d="M110.329,110.694c-6.688,0 -12.039,-0.836 -16.052,-2.675c-4.013,-2.007 -7.023,-5.1 -9.029,-9.364c-0.92,-2.007 -1.672,-3.846 -2.341,-5.685c-0.502,-2.007 -0.92,-4.18 -1.338,-6.688c-0.251,-2.425 -0.502,-5.351 -0.669,-8.695l0,-44.478c0.167,-3.344 0.418,-6.187 0.669,-8.695c0.418,-2.425 0.836,-4.682 1.338,-6.688c0.669,-2.007 1.421,-3.846 2.341,-5.685c2.007,-4.18 5.016,-7.19 9.029,-9.029c4.013,-2.007 9.364,-3.01 16.052,-3.01l13.377,0c6.438,0 11.705,1.003 15.718,3.01c4.013,1.839 7.023,4.849 9.029,9.029c0.836,1.839 1.505,3.679 2.007,5.685c0.669,2.007 1.087,4.264 1.338,6.688c0.418,2.508 0.752,5.351 1.003,8.695c0.167,3.177 0.334,7.023 0.334,11.705l0,20.734c0,4.682 -0.167,8.695 -0.334,12.039c-0.251,3.344 -0.585,6.27 -1.003,8.695c-0.251,2.508 -0.669,4.682 -1.338,6.688c-0.502,1.839 -1.17,3.679 -2.007,5.685c-2.007,4.264 -5.016,7.357 -9.029,9.364c-4.013,1.839 -9.28,2.675 -15.718,2.675l-13.377,0Zm13.043,-79.258c0,-2.425 -0.669,-4.431 -2.007,-6.02c-1.17,-1.756 -2.592,-2.675 -4.348,-2.675c-2.007,0 -3.595,0.92 -4.682,2.675c-1.17,1.589 -1.672,3.595 -1.672,6.02l0,47.823c0,2.675 0.502,4.849 1.672,6.354c1.087,1.589 2.675,2.341 4.682,2.341c1.756,0 3.177,-0.752 4.348,-2.341c1.338,-1.505 2.007,-3.679 2.007,-6.354l0,-47.823Z" style="fill:#fff;fill-rule:nonzero;"/></g></g></g><g><g><g><path d="M162.476,0l48.157,0c5.1,0 9.113,0.251 12.039,0.669c2.843,0.502 5.016,1.338 6.354,2.675c2.007,1.839 3.428,4.849 4.348,9.029c0.836,4.013 1.338,9.531 1.338,16.387l0,8.361c0,6.939 -0.585,12.875 -1.672,17.724c-0.92,4.682 -2.257,7.859 -4.013,9.364c-0.669,0.669 -1.505,1.254 -2.341,1.672c-0.669,0.502 -1.672,0.836 -3.01,1.003c-1.17,0.251 -2.592,0.334 -4.348,0.334l-27.088,0l0,43.475l-29.764,0l0,-110.694Zm29.764,24.078l0,19.062l5.016,0c2.843,0 4.849,-0.669 6.02,-2.007c1.087,-1.338 1.672,-3.762 1.672,-7.357c0,-3.762 -0.669,-6.354 -2.007,-7.692c-1.17,-1.338 -3.344,-2.007 -6.688,-2.007l-4.013,0Z" style="fill:#fff;fill-rule:nonzero;"/></g></g></g><g><g><g><g><rect x="241.555" y="0" width="29.764" height="110.694" style="fill:#fff;fill-rule:nonzero;"/></g></g></g></g></g></svg>